<svg xmlns="http://www.w3.org/2000/svg" width="586.307" height="236.531" viewBox="0 0 586.307 236.531"><g fill="#005480"><path d="M533.398 31.708c-3.146 0-3.8 1.493-3.8 3.805v1.166h4.476v4.637h-4.476v21.04h-6.8v-21.04h-2.813v-4.64h2.812v-1.823c0-5.14 3.32-7.955 8.954-7.955 1.16 0 1.983 0 2.974.17v4.638h-1.326zM575.846 140.05v-31.648c0-3.97-2.168-7.284-7.457-7.284-2.984 0-5.14.832-6.962 2.645.496 1.493.663 2.985.663 6.13v30.156h-10.105V108.4c0-3.638-.997-7.45-7.462-7.45-3.306 0-4.472.5-6.285 1.33v37.77h-10.112V98.306c3.814-1.66 9.276-3.646 16.9-3.646 6.298 0 10.44 1.484 12.923 3.646 2.984-2.162 6.954-3.646 12.756-3.646 10.603 0 15.24 6.127 15.24 13.742v31.648h-10.1zM469.937 72.63c-3.82 0-6.794-.83-8.78-1.827l1.485-3.98c1.484.665 3.474 1.333 6.29 1.333 4.31 0 5.637-1.99 5.637-5.302V61.19c-.818.507-2.478 1.166-5.303 1.166-6.29 0-9.116-3.146-9.116-8.283V36.678h6.802v17.06c0 2.323.83 4.144 4.136 4.144 1.66 0 2.664-.5 3.48-.828V36.678h6.802v24.68c0 8.123-4.814 11.27-11.433 11.27M451.79 62.683c-4.96 0-7.447-2.65-7.447-6.953V41.316h-2.825v-4.638h2.825v-5.304l6.787-1.818v7.122h4.143v4.638h-4.143v13.75c0 2.317 1.164 2.978 2.81 2.978.83 0 1.5 0 2.33-.163v4.304c-.67.17-1.996.5-4.48.5M430.18 36.678h6.774v25.677h-6.773zM416.14 62.854c-3.32 0-5.972-.83-7.952-1.824l1.653-4.307c1.333.66 3.152 1.493 5.31 1.493 2.476 0 3.968-.832 3.968-2.814 0-1.826-1.16-2.656-4.145-3.81-4.972-1.99-5.968-4.976-5.968-7.79 0-4.138 3.158-7.622 8.787-7.622 3.146 0 5.462.83 7.288 1.82l-1.826 3.98c-.824-.5-2.638-1.327-4.64-1.327-2.315 0-3.466.994-3.466 2.647 0 1.826 1.813 2.485 4.136 3.477 5.126 1.99 6.292 4.977 6.292 8.125 0 4.635-3.815 7.952-9.437 7.952M406.025 41.316c-.49-.17-1.988-.335-3.14-.335-1.165 0-2.168.166-2.824.336v21.04h-6.785v-24.19c.99-.493 4.966-1.82 9.443-1.82 2.638 0 3.307.168 4.304.333l-.997 4.636zM470.306 140.05v-30.98c0-4.308-1.83-7.452-7.45-7.452-3.16 0-5.314.824-7.456 2.145v36.287h-10.106V80.413H455.4v16.57c2.644-1.162 6.452-1.994 9.938-1.994 11.104 0 15.065 6.628 15.065 13.41v31.65M334.818 33.528c-2.483 0-3.648-1.493-3.648-3.315 0-1.818 1.165-3.314 3.648-3.314 2.322 0 3.642 1.496 3.642 3.313 0 1.823-1.32 3.315-3.642 3.315M356.69 62.355h-6.458l-8.787-25.677h7.3l3.308 12.09c.342 1.158 1.165 4.143 1.486 5.636h.166c.16-1.493 1.005-4.478 1.325-5.635l3.48-12.092h6.8l-8.62 25.677zM331.284 36.678h6.788v25.677h-6.788zM433.715 33.528c-2.477 0-3.648-1.493-3.648-3.315 0-1.818 1.172-3.314 3.648-3.314 2.322 0 3.64 1.496 3.64 3.313 0 1.823-1.318 3.315-3.64 3.315M319.546 62.355V44.298c0-1.824-.817-3.644-4.137-3.644-1.653 0-2.652.327-3.476.663v21.04h-6.792v-24.19c2.816-1.157 6.292-1.987 10.6-1.987 7.792 0 10.61 3.81 10.61 8.118v18.058h-6.806zM347.804 89.857c-3.814 0-5.804-2.493-5.804-5.308 0-2.812 1.99-5.294 5.804-5.294 3.64 0 5.79 2.482 5.79 5.293 0 2.814-2.15 5.307-5.79 5.307M384.822 140.05v-31.648c0-3.638-1.493-7.453-7.958-7.453-3.306 0-4.968.5-6.794 1.33v37.77h-10.1V98.306c3.81-1.66 9.773-3.646 17.39-3.646 13.252 0 17.563 6.458 17.563 13.586v31.804h-10.1zM288.777 62.854c-6.633 0-11.6-3.48-11.6-10.27v-22.87h7.126v22.87c0 3.147 1.653 4.8 4.474 4.8 2.814 0 4.474-1.653 4.474-4.8v-22.87h7.12v22.87c0 6.79-4.96 10.27-11.593 10.27M342.742 95.485h10.12v44.565h-10.12zM330.08 140.54c-8.78 0-12.254-4.967-12.254-12.09v-26.5h-4.975v-6.464h4.976V86.54l10.098-2.814v11.76h7.13v6.465h-7.13v26.5c0 3.977 2.156 5.143 4.98 5.143.823 0 1.98 0 2.98-.167v6.625c-1 .16-3.65.49-5.804.49M303.737 140.54c-8.778 0-12.256-4.967-12.256-12.09v-26.5h-4.97v-6.464h4.97V86.54l10.107-2.814v11.76h7.12v6.465h-7.12v26.5c0 3.977 2.15 5.143 4.972 5.143.83 0 1.982 0 2.978-.167v6.625c-.995.16-3.647.49-5.8.49M230.78 62.355V44.298c0-1.99-.998-3.644-3.98-3.644-1.656 0-2.65.492-3.643.994v20.708h-6.79V27.4h6.79v9.94c.992-.498 2.98-1.16 5.133-1.16 6.794 0 9.28 3.977 9.28 7.952v18.223h-6.79zM206.092 35.02v27.335h-7.124V35.02h-6.627v-5.307h20.544v5.308M90.113 27.73V12.49c7.457 1.823 12.927 4.306 18.723 7.458V34.19c-5.795-2.648-12.09-4.97-18.723-6.46M231.275 140.05l-21.21-35.784c-1.32-2.155-2.31-4.307-3.472-6.957h-.17c.333 2.81.5 5.132.5 7.285v35.455h-9.772V83.228h10.435l19.715 33.46c1.157 1.988 2.15 3.812 3.147 6.464h.165c-.333-2.818-.333-4.803-.333-6.79V83.228h9.774v56.823h-8.78zM79.18 104.433l.998-31.147c0-1.985 1.488-3.475 3.313-3.475 1.992 0 3.312 1.49 3.312 3.476l1.16 31.147h-8.78zM83.49 163.897c-10.768 0-18.22-3.146-26.838-7.615-7.615-3.976-15.077-6.458-24.852-6.458-9.104 0-20.04 2.322-31.8 9.604 9.77-14.57 22.696-18.887 34.785-18.887 12.925 0 23.026 3.982 32.14 8.627 8.45 4.297 15.072 6.446 24.354 6.446 7.786 0 16.4-2.15 24.515-8.93-10.107 13.245-21.866 17.214-32.305 17.214M505.704 36.18c-7.61 0-11.258 5.635-11.258 13.255 0 7.788 3.648 13.42 11.258 13.42 7.63 0 11.277-5.632 11.277-13.42 0-7.62-3.646-13.255-11.276-13.255m0 22.195c-3.468 0-4.297-3.97-4.297-8.94 0-4.806.83-8.782 4.297-8.782 3.493 0 4.316 3.976 4.316 8.78 0 4.97-.823 8.942-4.316 8.942zM503.93 94.66c-6.953 0-12.27 1.987-15.24 3.308l2.31 6.135c2.657-1.332 6.793-2.818 11.105-2.818 5.3 0 8.78 1.486 8.78 7.286v2.486c-.83-.163-3.814-.665-6.458-.665-10.273 0-18.56 5.31-18.56 15.907 0 8.614 5.795 15.072 18.393 15.072 6.96 0 12.596-1.32 16.396-3.14v-28c0-11.6-7.456-15.57-16.726-15.57m6.954 39.756c-1.165.496-3.648 1.157-5.956 1.157-5.315 0-8.956-3.48-8.956-9.61 0-5.79 3.16-9.77 9.283-9.77 2.82 0 4.64.496 5.63.663v17.56zM388.952 48.932c0-8.107-4.137-12.752-11.098-12.752-7.12 0-11.438 4.966-11.438 13.255 0 8.61 4.812 13.42 12.43 13.42 3.975 0 6.96-.83 9.107-1.992L386.3 56.39c-1.82.832-3.814 1.492-6.785 1.492-3.158 0-5.97-1.322-6.474-6.29h15.912v-2.66m-6.467-1.65h-9.604c0-4.976 1.99-6.793 4.814-6.793 2.65 0 4.79 1.652 4.79 6.462v.33zM422.75 94.66c-14.417 0-21.53 9.108-21.53 23.523 0 13.91 7.113 22.196 17.89 22.196 3.976 0 6.954-.664 8.768-1.662v2.824c0 5.96-3.146 9.773-10.594 9.773-4.96 0-8.118-1.332-10.77-2.484l-2.816 6.3c3.325 1.82 8.626 3.3 15.412 3.3 11.097 0 18.714-6.124 18.714-17.89V97.802c-2.98-1.657-8.287-3.142-15.073-3.142m5.127 37.606c-1.486.817-3.467 1.48-5.782 1.48-7.122 0-10.28-5.296-10.28-15.563 0-10.604 3.32-17.234 10.762-17.234 2.155 0 3.814.168 5.3 1v30.316zM263.36 48.932c0-8.107-4.147-12.752-11.098-12.752-7.13 0-11.438 4.966-11.438 13.255 0 8.61 4.805 13.42 12.425 13.42 3.978 0 6.96-.83 9.115-1.992l-1.657-4.474c-1.824.832-3.815 1.492-6.796 1.492-3.146 0-5.96-1.322-6.458-6.29h15.906v-2.66m-6.468-1.65h-9.604c0-4.976 1.99-6.793 4.805-6.793 2.652 0 4.8 1.652 4.8 6.462v.33zM264.968 94.66c-12.587 0-18.88 9.606-18.88 23.186 0 13.423 6.293 23.027 18.88 23.027 12.596 0 18.887-9.604 18.887-23.027 0-13.58-6.29-23.186-18.887-23.186m.655 40.09c-6.96 0-8.114-8.948-8.114-16.903 0-8.118 1.152-17.06 8.113-17.06 6.96 0 8.12 8.942 8.12 17.06 0 7.954-1.16 16.902-8.12 16.902z"/><path d="M90.113 31.045c-3.976-.997-8.278-1.655-12.585-2.156V9.84c-4.64-.664-9.444-.99-14.412-.99-4.64 0-9.283.327-13.753.825V27.73c-4.307.5-8.45 1.33-12.423 2.32V12.16c-7.127 1.987-13.917 4.8-20.044 8.282v37.108l8.445 8.116-2.482 41.742-6.792 6.792v24.182l2.318 2.49c5.633-2.972 12.754-5.463 21.37-5.463 8.28 0 17.89 2.317 28.66 8.288v-30.812l-4.47-5.646V64.505L72.72 50.92l-3.645 13.084c2.487-.323 4.97-.488 7.622-.488 8.616 0 16.565 1.486 23.357 4.142l8.78-8.122V37.508c-5.793-2.654-12.087-4.81-18.72-6.463m-52.68 73.388l.998-31.147c0-1.985 1.49-3.475 3.313-3.475 1.824 0 3.313 1.49 3.313 3.476l1.166 31.147h-8.79zM152.657 0h2.452v172.974h-2.453zM24.406 226.49v-14H22.04v15.03c0 2.156-.177 3.36-.673 4.245-.847 1.553-2.616 2.368-5.164 2.368-3.96 0-5.906-1.766-5.906-5.702v-15.94H7.472v13.86c0 4.49.177 5.63 1.236 7.14 1.27 1.836 3.958 2.974 7.07 2.974 2.934 0 5.2-.75 6.687-2.155 1.622-1.595 1.94-2.827 1.94-7.82m22.732 9.578V212.49h-2.362v20.968l-10.61-20.968h-4.026v23.584h2.365v-20.692l10.607 20.687h4.025zm5.944.006h2.83V212.49h-2.83v23.584zm23.618-21.47v-2.114H59.306v2.113h7.286v21.465h2.825v-21.465h7.28zm17.15 21.464v-2.114H82.92v-9.204h10.468v-2.113H82.92v-8.033h10.75v-2.113H80.1v23.58h13.75zm21.672-11.773c0-4.384-1.27-7.736-3.633-9.76-1.808-1.513-3.93-2.046-8.176-2.046h-5.613v23.583h4.768c4.635-.006 6.188-.287 8.17-1.55 2.863-1.874 4.485-5.523 4.485-10.228zm-3.036 0c0 3.54-.85 6.19-2.44 7.75-1.485 1.485-3.185 1.908-7.57 1.908h-1.556v-19.35h2.37c3.997 0 5.412.388 6.863 1.847 1.555 1.553 2.334 4.136 2.334 7.845zm33.48 11.773L135.11 223.45l10.57-10.96h-3.357l-10.254 10.75v-10.75h-2.822v23.584h2.82v-12.166l10.362 12.16h3.533zm3.4.006h2.824V212.49h-2.825v23.584zm25.77-.006V212.49h-2.366v20.968L162.16 212.49h-4.028v23.584h2.366v-20.692l10.61 20.687h4.026zm22.275-1.587v-9.476h-2.72v8.27c-1.77.537-3.644.858-5.13.858-2.262 0-3.606-.643-4.7-2.195-1.135-1.633-1.805-4.457-1.805-7.776 0-6.478 2.19-9.558 6.79-9.558 1.486 0 3.963.36 6.363.964l.494-2.087c-3.108-.952-5.124-1.306-7.034-1.306-6.262 0-9.652 4.196-9.652 12.12 0 7.784 3.25 12.235 8.872 12.235 2.406 0 5.132-.642 8.52-2.05zm22.524-10.185c0-4.384-1.276-7.736-3.638-9.76-1.803-1.513-3.93-2.046-8.172-2.046h-5.618v23.583h4.768c4.634-.006 6.19-.287 8.172-1.55 2.862-1.874 4.488-5.523 4.488-10.228zm-3.04 0c0 3.54-.846 6.19-2.438 7.75-1.486 1.485-3.185 1.908-7.57 1.908h-1.556v-19.35h2.37c3.996 0 5.412.388 6.86 1.847 1.56 1.553 2.335 4.136 2.335 7.845zm26.306.107c0-7.843-3.46-12.193-9.69-12.193-6.223 0-9.758 4.35-9.758 12.125 0 7.95 3.356 12.154 9.69 12.154 6.332 0 9.758-4.238 9.758-12.088zm-3.036 0c0 6.654-2.16 9.833-6.617 9.833-2.122 0-3.925-.777-4.916-2.122-1.133-1.525-1.844-4.565-1.844-7.744 0-6.54 2.304-9.9 6.798-9.9 4.454 0 6.58 3.246 6.58 9.932zm30.544 11.666l-.778-23.578h-4.028l-6.79 21.322-6.86-21.322h-4.03l-.776 23.578h2.612l.457-20.862 6.723 20.862h3.392l6.79-20.862.392 20.862h2.896zm23.263-10.005c0-1.553-1.27-2.824-2.826-2.824s-2.825 1.27-2.825 2.823c0 1.56 1.27 2.823 2.824 2.823s2.827-1.263 2.827-2.823zm33.064 8.7l-.676-2.048c-2.97.924-4.872 1.305-6.33 1.305-4.03 0-6.253-3.566-6.253-10.073 0-6.05 2.37-9.377 6.68-9.377 1.525 0 3.254.215 5.516.703l.497-2.114c-2.197-.67-4.46-1.06-6.158-1.06-6.187 0-9.572 4.31-9.572 12.234 0 7.67 3.32 12.196 8.836 12.196 1.912 0 4.63-.642 7.46-1.768zm20.576 1.305V212.49h-2.82v10.112H333.47V212.49h-2.825v23.578h2.825v-11.346h11.323v11.346h2.82zm5.942.006h2.824V212.49h-2.824v23.584zm25.775-.006V212.49h-2.37v20.968L366.35 212.49h-4.023v23.584h2.357v-20.692l10.613 20.687h4.03zm23.37 0l-8.592-23.578h-3.213l-8.387 23.578h2.55l2.262-6.325h10.188l2.29 6.325h2.903zm-6.01-8.48h-8.632l4.242-12.664 4.39 12.665zm26.733-1.525c0-1.553-1.27-2.824-2.824-2.824-1.56 0-2.838 1.27-2.838 2.823 0 1.56 1.278 2.823 2.838 2.823 1.552 0 2.824-1.263 2.824-2.823zm40.445 10.005l-.775-23.578h-4.03l-6.793 21.322-6.853-21.322h-4.03l-.775 23.578h2.61l.453-20.862 6.72 20.862h3.4l6.787-20.862.388 20.862h2.897zm23.166 0l-8.595-23.578h-3.225l-8.372 23.578h2.55l2.26-6.325h10.188l2.29 6.325h2.905zm-6.01-8.48h-8.634l4.244-12.664 4.39 12.665zm22.555 8.48v-2.114H493.04V212.49h-2.824v23.578h13.36zm21.043 0l-8.593-23.578h-3.228l-8.372 23.578h2.543l2.262-6.325h10.18l2.304 6.325h2.904zm-6.016-8.48h-8.63l4.246-12.664 4.384 12.665zm22.025-15.098h-2.838l-6.25 10.89-6.44-10.89h-3.246l8.024 13.25v10.328h2.824V225.74l7.925-13.25zm15.232 16.865c0-3.573-1.34-5.126-6.505-6.72-4.418-1.338-5.02-1.98-5.02-4.096 0-2.518 1.8-3.938 4.384-3.938 1.452 0 3.257.255 5.588.75l.494-2.088c-2.195-.636-4.31-.99-6.184-.99-4.323 0-7.108 2.477-7.108 6.504 0 5.45 5.44 5.765 9.264 7.497 1.833.817 2.263 1.7 2.263 3.434 0 2.542-2.223 4.243-5.235 4.243-1.698 0-3.573-.314-5.937-.917l-.61 2.155c2.626.776 4.494 1.092 6.723 1.092 4.777 0 7.88-2.643 7.88-6.927zm4.244 6.72h2.83V212.49h-2.83v23.584zm26.203-.007l-8.593-23.578h-3.222l-8.378 23.578h2.543l2.27-6.325h10.18l2.303 6.325h2.897zm-6.017-8.48h-8.62l4.242-12.664 4.378 12.665z"/></g></svg>