<svg version="1" xmlns="http://www.w3.org/2000/svg" width="666.667" height="666.667" viewBox="0 0 500.000000 500.000000"><path d="M231.5 37.1c-50.6 4-100.6 28.2-134.7 65-11.3 12.2-24.5 29.3-29.8 38.6l-4.3 7.4.2 45L63 238l-2.6 2.7c-2.3 2.3-3.1 2.5-7.6 2-6.9-.9-8.5-2.6-9.3-10-1.8-17.7-1.6-17-3.2-14.8-2.3 3.4-3.6 19.3-3 39.1.8 31 7 56.3 21.1 86.2 4.5 9.6 6.3 11.4 9.2 9 .5-.5 2.7-1.4 5-2l4.1-1.2.1-63.2c.2-66.9.9-126.3 1.7-143.8.3-5.8.6-11.3.6-12.3 0-2.1 1.9-2.3 1.9-.1 0 .8.5 1.2 1 .9.6-.3 1-.1 1 .5 0 .7.6 1 1.3.7 2.8-1.1 3.8.8 1.9 3.4-1.1 1.3-2.7 4-3.7 5.9-1.7 3.2-1.7 3.4-.1 2.1 1-.8 2.4-2.8 3.2-4.4.9-1.6 1.8-2.6 2.1-2.3.3.3-.2 1.7-1.1 3.2-1 1.4-1.5 2.8-1.3 3.1.3.2 1.3-.9 2.3-2.6 1-1.7 2.2-3.1 2.6-3.1 1 0-.2 3-2.6 6.2-1.9 2.7-1.9 2.8-.1 6.2 1.7 3.1 1.7 4 .6 9.1-.7 3.1-1 5.9-.7 6.2.3.3.8-.8 1.1-2.3 1.6-7.1 1.9-7.2 6.1-1.6 2.1 2.9 3.9 5.6 4 6 .1 2.1 3.6 8.2 6.4 11.2l3.2 3.5-2.4-3.5c-2.6-3.6-5.8-9.5-5.8-10.5 0-.3.8-.1 1.8.4s2.6.9 3.7.8c1.5-.2 2.1.8 3.1 4.8.6 2.7 1.9 7 2.8 9.5 2.7 7.1 3.7 11 4.7 18.5.6 3.8 1.8 9.5 2.9 12.5 1 3 2.6 8.1 3.6 11.3.9 3.1 1.9 5.6 2.1 5.4.2-.2.6-10 .9-21.7.4-14.5 1-22.5 2-25.2.8-2.2 1.4-4.8 1.4-5.8 0-.9 1.1-2.7 2.5-4 1.4-1.3 2.5-3.4 2.5-4.6 0-1.3.5-2.6 1-2.9.6-.4.8-1.1.5-1.6-.4-.5-.1-.9.6-.9s1-.3.7-.6c-.4-.3.7-3.5 2.4-7.2 3.4-7.4 11.5-16.4 17.1-18.7 1.9-.8 3.9-2.1 4.7-2.9.7-.9 1.8-1.6 2.4-1.6.6 0 2.2-.9 3.6-2s3.5-2 4.6-2c1.2 0 2.4-.7 2.8-1.5.3-.8 1.2-1.5 1.9-1.5.8 0 2.2-.9 3.2-2 2.5-2.7 2.8-2 1.2 2.6-.8 2.1-1.2 4.5-1 5.1.3.7-.1 1.3-.7 1.3-.7 0-1 .6-.7 1.4.3.8.1 3.1-.4 5.1-.6 2-.7 4.4-.3 5.3 1.1 2.5.7 12-.7 17.2-.7 2.5-2.5 6.5-4.1 8.9-1.6 2.4-2.7 4.5-2.5 4.8.3.2 1.8-.8 3.5-2.1 2.8-2.4 5.3-7.9 7.2-15.6.4-1.9 1.5-5.8 2.4-8.5.9-2.8 1.6-6.1 1.7-7.5l.1-2.5.8 2.5.8 2.5.3-2.5c.1-1.4.1-3.6 0-4.8-.1-1.7.2-2.2 1-1.6.8.5 1.1.2.7-.8-.3-.8.9-3.9 2.8-6.9 1.8-3 3.4-5 3.4-4.5 0 .6 1.3-.3 2.9-1.8 1.6-1.6 3.4-2.5 3.9-2.2.5.3 1.5-.1 2.2-.9.7-.8 1.6-1.3 2-1 .4.3 4.1-.3 8.1-1.3 12.6-3.1 15-1.2 11.7 9.2-1.1 3.6-2.5 6.6-3 6.6s-.7.4-.4.9c.6.9-1.3 3.6-6.1 8.7-1.2 1.3-2 3.1-1.7 3.9.7 1.7-4.2 8.9-7.1 10.5-1.2.6-2.5 2-3 3-4.2 8-6 11-6.7 11-.4 0-.8.9-.8 1.9 0 1.6 1 2.1 5.4 2.6 4.4.6 5.3 1 4.8 2.3-.3 1 .7.6 3-1.1 1.9-1.5 4-2.7 4.6-2.7.7 0 1.2-.5 1.2-1 0-.6.6-1 1.4-1 .8 0 1.6-.7 2-1.5.3-.8 1-1.5 1.5-1.5.6 0 2.9-1.9 5.2-4.3 2.3-2.3 3.9-3.4 3.6-2.4-.6 1.7-.4 1.6 2.2-.2 2.7-1.9 4-2.1 14.9-1.7 6.6.2 12.5.7 13.1 1 1.7 1.1 1.3 2.4-.5 2.2-.9 0-1.9.5-2.2 1.3-.3.8 0 1.1.7.7.6-.4 1.1-.3 1.1.3 0 .5-.8 1.2-1.8 1.5-1.6.5-2.1 2.7-1.3 5.4.1.1.9-.1 1.9-.7 1.3-.7 2.1-.3 3.6 1.6 1.8 2.4 1.8 2.5 0 2.1-1.1-.1-3.8.7-6.2 2-2.3 1.2-4.9 2.2-5.6 2.2-.8 0-1.6.5-1.8 1.1-.3.9-1.2.9-3.2.3-2.5-.9-3.3-.5-7.2 3-2.4 2.2-4.4 4.4-4.4 5 0 1.5-5.6 9.6-6.2 9-.3-.2-.6 2.3-.7 5.7-.1 3.9.2 5.8.9 5.4.7-.4.7.2.1 1.8-3 7.9-5.2 23-4.9 34.2.2 6.4 0 11.9-.4 12.1-.4.3-.8 2.4-.8 4.7 0 4.8-2.7 10-6.2 11.8-1.3.7-2.9 2-3.6 3-1.2 1.7-1.5 1.6-6.8-.8-3.6-1.6-6.3-2.3-8-1.9-2.2.6-2.4.9-1.3 2.2 2.2 2.7 8.7 5.4 12.8 5.4 4.2 0 12.6 4.5 16.5 8.8 2.8 3.2 1.4 6.6-3.7 9.7-4.9 2.8-8 3.1-11.7 1-3-1.7-14.3-1.9-20.6-.4-3 .8-4.8.8-5.7.1-.6-.5-2.3-.9-3.7-.8-2.2.1-2.5.6-2.5 3.6s.3 3.4 2 3.1c3.1-.6 14.6-.3 15.3.4 1 1-2.1 2.5-4 1.9-1.5-.4-1.7 0-1.2 2.8.4 1.8 1.6 4.3 2.7 5.6 2.5 2.7 7.6 5.4 8.8 4.6 1.7-1 .9-3.4-1.4-4.5-3.4-1.5-5.1-4.7-3.6-6.5 1.3-1.6 3.4-1.9 2.4-.4-.6 1 4.1 2.6 6.5 2.1.8-.2 1.8-.8 2.1-1.3.4-.7 1.3-.6 2.7.1 1.1.6 3 1.1 4.1 1.1 1.8 0 2 .6 1.9 4.5 0 3.9-.2 4.3-1.3 2.8-1.2-1.6-1.4-1.6-2.9 0-1 .9-1.4 2.2-1 2.8.5.9-.6 1-4.2.7-4.6-.6-4.8-.5-2.6.9 1.2.9 2.2 2.1 2.2 2.9 0 .7.9 1.8 2 2.4 1.1.6 2 1.9 2 2.9s.6 2.4 1.4 3c1.2 1 1.8.1 3.5-5.1 1.4-4.3 4-8.6 8-13.5 6.6-8.2 14.3-21.6 16.1-28.2.6-2.4 2-6 3.1-8 1-2 1.9-4.5 1.9-5.6.1-1.7.4-1.6 2.3 1 1.2 1.6 3.9 4.9 6.1 7.3 2.1 2.3 3.3 4.2 2.7 4.2-.6 0-1.1.9-1.1 2.1 0 1.1-.5 3-1.2 4.2-.7 1.2-1.5 5-1.9 8.3-.5 5-1.6 7.7-5.5 14-2.7 4.4-6.6 9.8-8.8 12.2-4.3 4.7-3.9 4.6 7.4-1.2 4.1-2.1 11.5-5.3 16.5-7.1 4.9-1.8 13.9-5.7 20-8.7 9.9-4.8 11.5-5.3 16.8-5 6.7.3 13.1 3.5 13.4 6.6.1 1-1.3 3.1-3 4.5-5.7 4.8-7.7 6.8-7.7 7.9 0 .6-2.1 2.3-4.7 3.8-11.3 6.4-20.7 12.7-23 15.4-1.4 1.7-3.1 3-3.8 3-.8 0-1.7.5-2.1 1.2-.4.6-.3.8.3.5.5-.3 1 0 1 .8 0 1.1-.4 1.2-1.3.4-1.8-1.4-4.5-.4-6.7 2.6-2.5 3.4-1.3 4.9 2.4 3 1.6-.9 2.7-2 2.4-2.5-.3-.5-.1-1.1.5-1.5.6-.3 1 .4 1 1.7.1 2 .2 2.1 1.1.6.5-1 1.6-1.5 2.5-1.1.8.3 4.3-.8 7.7-2.5 7.9-3.9 14.2-5.9 20.4-6.8 7.3-.9 7.6 1.1 1.3 9.6-2.7 3.7-5 7-5 7.3 0 .3-1.9 3.5-4.1 7.1-3.3 5.3-5 7-8.6 8.6-2.5 1.1-4.2 2.4-3.8 3 .4.6.3.9-.2.8-.4-.1-2.2.5-3.9 1.5-1.7.9-3.5 1.3-3.8.9-.4-.3-.5 0-.2.8.4 1-.7 2.4-3.1 4-2.1 1.4-4.7 3.3-5.8 4.2-1.1 1-2.9 2.4-4 3.2-1.1.9-1.4 1.6-.7 1.6.6 0 1.2.5 1.2 1.1 0 .5-.4.8-.9.4-1.3-.8-4 2.2-4.7 5.3-.4 1.5-1.4 3.3-2.3 4-.8.7-1.6 2-1.6 3 0 .9-.6 1.6-1.2 1.5-.7-.2-1.3.6-1.3 1.6 0 1.1-.5 2.3-1 2.6-.8.5-.8 1.1-.1 1.9.8.9.5 1.9-.9 3.6-1.1 1.2-1.7 2.7-1.4 3.2.4.6.1 1.4-.5 1.7-.7.4-1.3 2.6-1.4 4.9-.1 2.3-.5 4.2-.9 4.2s-1.4 2.1-2.1 4.7c-1.1 3.9-1.2 5.1-.1 7.2 1.4 2.7.9 4.5-.6 2.1-.8-1.2-1-1.2-1-.2 0 .8.9 1.6 2 1.9 1.2.3 2 1.4 2.1 2.7.4 9.3.2 8.9 3.9 9.9 1.9.5 7.5.7 12.4.4 7-.4 9.1-.8 9.8-2.2.9-1.5 1.1-1.5 2.2 0s2.3 1.5 11.5.5c11.7-1.3 13.1-1.7 13.1-3.6 0-1.8-.8-1.8-6.1.2-4.5 1.6-15.2 2.4-16.4 1.2-.4-.3.1-1.8 1.1-3.2 2.3-3.6 1.1-4.4-1.9-1.2-1.3 1.4-3.1 2.6-4 2.6-.9 0-1.9.5-2.2 1-.3.6-1.1 1-1.6 1-1.4 0 2.5-7 6.6-11.7 2.4-2.9 6.3-5.6 11.3-8 13-6.2 35.7-22.2 46.3-32.5l9.6-9.3 9.2-18.6c5-10.3 9.1-19.9 9.1-21.3 0-1.5.9-3.7 2.1-4.9 2.4-2.6 10.6-14.7 11.5-17 .4-1.3.1-1.7-1.5-1.7-1.2 0-2.3.6-2.5 1.2-1.6 5.7-4.2 11.3-6.8 14.9l-3 4.2-3.1-3.1-3.1-3.1 3.2-4.3c1.8-2.4 4.3-6.2 5.5-8.6 1.9-3.8 2.5-4.3 4.7-3.8 1.4.4 5.1.9 8.3 1.3 4.9.5 5.7.9 5.7 2.7 0 1.1.9 5.7 2 10 1 4.4 1.6 8.5 1.1 9-.4.6-1.6 3.5-2.5 6.4-1.2 3.8-1.4 5.8-.6 7.2 1.6 2.9 1.2 4.2-1 3.5-1.1-.3-2-.2-2 .3s.9 1.2 2 1.5c1.1.3 2 1 2 1.7 0 .6-.4.9-.9.6-.5-.3-1.1.3-1.4 1.3-.3 1.2.1 2.2.9 2.5.8.3 1.4 1.1 1.3 1.8 0 1-.2 1-.6 0-.2-.6-.9-1.2-1.5-1.2s-.8.7-.4 1.5c.3.8.1 1.5-.4 1.5-.6 0-1 1.4-1 3.1 0 2.9.1 2.9 1.7 1.3 2.4-2.3 2.7-.7 1.4 7.3-1.9 12.1.9 9.5 7.4-7.1 2.5-6.5 5.5-13.4 6.5-15.3l1.9-3.5 1.6 3.3c1 1.8 2.6 5.7 3.6 8.8 2.6 7.6 7.2 18 8.1 18.1.4 0 0-2-.9-4.5-.8-2.5-1.3-5.4-1-6.5.3-1 0-2.1-.5-2.2-1.5-.5.1-4.8 1.7-4.8 1.1 0 1.2-.6.3-3.2-.9-2.6-.8-3.3.5-4.3 1.2-.9 1.4-1.4.5-2.3-.9-.9-.9-1.2.3-1.2s1.2-.2 0-.9c-2.4-1.5 2.5-3.3 10.3-3.7 3.9-.2 8.9-.6 11.1-.9 2.2-.3 4.3-.4 4.7-.3 1.8.7 17.3-28.4 21.9-40.9 8.8-24.1 12.9-47.7 12.9-74.3 0-34.2-7.1-65.4-21.5-94-27.4-54.7-75.2-94.9-132.5-111.3-15.7-4.5-25.9-6.4-42.9-7.7-15.1-1.1-19.7-1.1-35.6.1zM92.4 125.9c.3.5-.1 1.4-.8 2-1.2 1-1.3.8-.9-.8.6-2.3.9-2.5 1.7-1.2zM245 150c0 .5-.4 1-1 1-.5 0-1-.5-1-1 0-.6.5-1 1-1 .6 0 1 .4 1 1zm8.9 1.4c.7.8.4 1.6-1.1 2.5-1.9 1.1-2 1.1-1.4-.4.5-1.3.3-1.5-.6-.8-1.7 1.3-5.8 1.4-5.8.2 0-.5.5-.9 1-.9.6 0 1-.6 1-1.3 0-1.6 5.4-1.1 6.9.7zM104.7 155c-.3 1.1-.2 2 .3 2 .7 0 2.3 9 1.8 9.6-.7.6-4.6-3.4-5.2-5.4-.6-1.7-.4-2.1.8-1.6.9.3 1.6.2 1.6-.4 0-.5-.6-1.2-1.4-1.5-.7-.3-1.6-1.5-1.9-2.6-.4-1.7-.1-2.1 2-2.1 2 0 2.4.4 2 2zm-.3 12.9c-.2.3-1.2-.3-2.2-1.3-1.6-1.7-1.6-1.8.5-.5 1.2.7 2 1.5 1.7 1.8zm289.8 9.8c-.5 1-.6 2.7-.2 3.8.7 1.9.7 1.9 1.8 0 .9-1.7 1.4-1.8 3.2-.7 1.1.7 2.6.9 3.3.5 1.6-1 5-.4 5.9 1 .3.6 2 1.2 3.6 1.3 1.6.1 5.6 1 8.8 2 3.3.9 6.3 1.7 6.8 1.5 1.9-.4 4.6 1.2 4.6 2.8 0 1.9-5.6 7.8-6.5 6.9-.3-.3-2.2-.2-4.1.2-2.7.6-4.5.3-8.2-1.5-5.9-2.9-10.6-3.7-20.7-3.5-6 .1-8.7.6-11.2 2.1-4.6 2.8-13.4 3.7-15.2 1.5-1.4-1.7-2-7.1-.9-8.2.7-.6 4.7-1.4 8.6-1.7 1.2-.1 2.2-.5 2.2-1 0-.4.5-.7 1.1-.7.7 0 .9 1.2.5 3.5-.6 2.9-.4 3.4.9 2.9.8-.3 1.5-1.2 1.5-1.9 0-2.1 7.2-9.2 7.7-7.7.7 1.8 3.3-.5 3.3-2.9 0-1.2.7-1.9 2-1.9 1.7 0 1.9.4 1.2 1.7zm-15.3 1.2c1.6 1 1.1 1.3-5.7 3.9-5.8 2.2-6.4 1.7-2.6-2.2 2.7-2.6 5.8-3.3 8.3-1.7zM246 201.5c0 2.5-.4 4.5-1 4.5-.5 0-1-2-1-4.5s.5-4.5 1-4.5c.6 0 1 2 1 4.5zm92 .1c0 1.4-.4 2.3-1 1.9-.6-.4-.8-1.1-.5-1.6.4-.5-.2-.6-1.2-.2-1.6.6-1.6.5-.4-1 1.9-2.4 3.1-2.1 3.1.9zm7.3-1.2c.6 1.5-1.1 3.6-2.9 3.6-1.7 0-3.7-2.7-2.9-4 .9-1.5 5.2-1.2 5.8.4zm6.4.5c-.1 1.3-.7 1.7-2.2 1.4-1.7-.4-1.8-.3-.5.7 1.2.9 1.2 1.1.1.8-2.1-.6-2.6-2.8-.7-2.8.9 0 1.6-.5 1.6-1 0-.6.4-1 .9-1 .6 0 .9.8.8 1.9zm49.3 4.2c0 .5.5.7 1.1.3.8-.5.9-.2.2 1.1-1.1 1.9-.5 6.5.7 6.5.5 0 .7.6.6 1.4-.2 1.8-2.7 4.8-3.4 4.1-.3-.3-1.4.3-2.4 1.2-1.7 1.5-2.8 1.5-10.8.5-4.9-.7-10.2-1.8-11.7-2.4-3.5-1.5-7.3-4.8-7.3-6.3 0-.7-1.1-1.7-2.5-2.3-3.8-1.7-3-3 2.3-3.7 2.6-.4 5.2-.8 5.7-1 2.7-.9 27.5-.4 27.5.6zM234.6 212c.1 2.9.1 2.9-1.3 1-.8-1.1-1.1-2.5-.8-3 1.1-1.8 2-1 2.1 2zm2.4 12c0 .5-.7 1-1.5 1s-1.5-.5-1.5-1c0-.6.7-1 1.5-1s1.5.4 1.5 1zm37.5 8.9c.3.5.1 1.2-.5 1.6-.5.3-1-.1-1-.9 0-1.8.6-2.1 1.5-.7zm45 18c-.9 2.7-3 6.4-4.8 8.3-1.8 1.9-2.4 2.5-1.5 1.3 2.6-3.2 5.7-10.8 6.6-16.2.6-4.3.7-4.5 1-1.5.2 1.8-.4 5.5-1.3 8.1zm-259-4.4c2.9 2.8 3 5.7 1.6 31.1-.9 15.1-2.5 21.4-5.3 21.4-.9 0-.9.3 0 1.2.9.9.8 1.5-.2 2.7-.8.9-1.5 2-1.6 2.6-1 4.8-3.2 6.9-4.3 4.1-.4-1.1-.1-1.3 1-.9s1.4.2.9-.5c-.4-.7-1.4-1.2-2.2-1.2-.8 0-1.2-.5-.9-1 .4-.6.1-1.7-.5-2.5s-.8-2-.4-2.6c.4-.7.1-1.7-.7-2.3-4.3-3.4-6-13.1-6.2-35.2-.2-15.3-.2-15.6 2.2-17.5 1.7-1.4 3.9-1.9 8.3-1.9 4.9 0 6.3.4 8.3 2.5zm250.9.7c-.3 1.3-1.3 3.4-2.1 4.8-.9 1.7-1.2 1.8-.8.5.4-1.1.9-3.2 1.2-4.8.3-1.5 1-2.7 1.5-2.7s.6 1 .2 2.2zm137.9.9c2.1 1.1 7.7 6.5 7.7 7.5 0 1.2-2.8-.5-5.4-3.3-1.6-1.8-3.2-3-3.6-2.8-.5.3-1-.2-1.4-1-.7-1.8-.2-1.9 2.7-.4zM315 249.8c0 .5-.7 1.7-1.5 2.8-1.4 1.8-1.4 1.7-.4-.9 1.2-2.7 1.9-3.4 1.9-1.9zm140.6 7.6c1.7 1.3 1.8 1.6.3 3.1-1.7 1.7-4.4 1.2-5.3-1.1-.4-1-.2-1.2.6-.8.8.5.9.2.5-.9-.8-2.1 1.2-2.2 3.9-.3zm-20.9 3.3c-.9.8-4.8-.8-4.2-1.8.4-.5 1.4-.5 2.6.2 1.2.6 1.8 1.3 1.6 1.6zm3.8.2c-.3.6-1.5 1.6-2.6 2.2-1.8.9-1.9.8-.7-1 .6-1.1 1.6-1.7 2-1.5.4.3.8 0 .8-.7s.3-1 .6-.6c.3.3.3 1-.1 1.6zm-9 10.7c2.2 1 4.5 2.3 5 2.9 2 1.9 4.5 5.9 4.5 7.1 0 1.4-3.3 2.6-7.7 2.8-2.5.1-3.3.6-3.3 2 0 1.5-.3 1.6-1.5.6-1.3-1.1-1.4-1-.9.5.9 2.1-1.5 3.8-3.3 2.3-1-.8-1.3-.6-1.3.6 0 .9-.4 1.6-1 1.6-.5 0-.7.6-.4 1.4.3.8.1 1.7-.4 2-.5.3-.7 1.6-.5 2.8.3 1.5-.5 3.4-2.5 5.5-2.4 2.8-3.1 3.1-4.5 2-.9-.6-1.8-2.3-1.9-3.7-.2-1.4-.7-3-1.1-3.6-.4-.7.3-2.1 1.6-3.3 1.2-1.1 4.6-4.2 7.4-6.9 2.9-2.7 5.5-4.6 5.9-4.3.4.3.1-.4-.5-1.6-.9-1.8-.9-2.2.1-1.8 1.6.6 2.9-.4 4.6-3.3 1.5-2.7.7-4.5-.9-2.2-.8 1.1-.9.9-.4-.8.4-1.5.3-2.2-.6-2-.7.2-1.5-.5-1.7-1.6-.2-1 0-1.6.5-1.4.4.3 2.6 1.4 4.8 2.4zm-98.3 79.6c1.6 1.4 3.2 4.8 2.1 4.8-1 0-5.3-4.2-5.3-5.2 0-1.2 1.4-1 3.2.4zm6.1 10.3c.4.8.2 1.7-.3 2-.6.4-1-.3-1-1.4 0-2.5.6-2.7 1.3-.6zm-20.4 38.9c-.2.2-1.4.9-2.6 1.5-1.9 1-2.3.9-2.3-.4 0-1 .9-1.5 2.7-1.5 1.4 0 2.4.2 2.2.4z"/><path d="M341 201.6c0 1.7 2.2 1.4 2.8-.4.2-.7-.3-1.2-1.2-1.2-.9 0-1.6.7-1.6 1.6zM80.8 132.7c.7.3 1.6.2 1.9-.1.4-.3-.2-.6-1.3-.5-1.1 0-1.4.3-.6.6zM83.5 134c-1 1.1-1.3 2-.8 2 1.3 0 3.8-2.9 3.1-3.5-.3-.3-1.3.4-2.3 1.5zM79.5 146.1c-.4.6-.5 1.2-.2 1.5.2.3.7-.2 1-1.1.7-1.7.1-2-.8-.4zM86.7 152.6c-.4.4-.7 1.4-.7 2.3 0 1.1.3 1.2 1.1.4.6-.6 1-1.6.7-2.3-.2-.6-.7-.8-1.1-.4zM94.6 164.9c-.7 1.1 3.7 10.5 5.3 11.5.9.6-3.3-11.1-4.3-12.1-.2-.2-.7 0-1 .6zM86.7 167.4c-.4 1-.5 2.1-.2 2.4.9.9 1.7-.6 1.3-2.5-.3-1.7-.4-1.7-1.1.1zM173 189.2c-2.5.4-6.3 1-8.4 1.3-2.2.3-4.4.9-5 1.5-1.5 1.5-3.9 1.3-3-.3.4-.6.3-.8-.1-.4-.5.4-1 1.5-1.1 2.3-.2 1.3.5 1.5 3.3 1.2 2.9-.3 3.2-.2 1.9.7-4.7 3.5.4 5.9 12 5.6 3.4-.1 7.3.3 8.8.9 2.9 1.1 5.1 5.3 3.8 7.6-1.9 3.3-9.9 7.1-18.7 8.7-5 .9-10.8 2.2-13 2.8l-4 1.2 3 .8c1.7.5 5.3.6 8 .2 8.8-1.3 11-.9 10.7 1.5-.3 2 .1 2.2 3.9 2.2 3.7 0 4 .2 2.8 1.6-1.2 1.5-1.1 1.6.9 1 1.3-.5 2.2-.3 2.2.3s-1.1 1.3-2.4 1.7c-2.1.5-4.3 3.1-3.3 4 .7.7 9.7-2.6 15.3-5.6 6.4-3.4 8.6-6.2 7.7-9.8-.3-1.3-.1-2.2.6-2.2.6 0 1.1 1.7 1.1 3.7.1 3.5.2 3.6 1.4 2 .8-1 1.7-4.5 2.1-7.8.6-5.2 1.2-6.5 4.2-9.2 2-1.8 4-3.1 4.5-2.9.6.1 1.6-.5 2.2-1.4 1.1-1.5 1.7-1.5 4.9-.3 3.1 1.1 3.9 1.1 4.9 0 1.1-1.1 1-1.3-.3-.8-1.2.4-1.5-.2-1.5-2.5.1-1.8-.5-3.2-1.2-3.4-.7-.1-.8 0-.2.3 1.8.9 1 2.1-1.1 1.6-1.5-.4-1.9-1.1-1.5-2.6.4-1.5.2-1.7-.7-.8-1.5 1.5-2.7 1.4-2.7-.3 0-.9-.7-1.2-1.9-.9-1 .2-2.5-.3-3.5-1.2-1.3-1.3-4.2-1.8-13.4-2.1-6.4-.3-13.3-.6-15.2-.7-1.9-.2-5.5 0-8 .5zM149.4 194c-2.3.9-3.9 2.8-3.1 3.6 1.1 1.2 5.3-.9 5.4-2.7.1-1 .1-1.9 0-1.8-.1 0-1.2.4-2.3.9z"/><path d="M152.5 198.5c-2.3 1-2.5 1.4-1 1.4 2.1.1 5.2-1.5 4.5-2.3-.3-.2-1.8.2-3.5.9zM41.2 209.5c0 1.6.2 2.2.5 1.2.2-.9.2-2.3 0-3-.3-.6-.5.1-.5 1.8zM189.9 236.7c-7 5.8-9.6 10.7-4.1 7.9 2.7-1.4 8.8-9.3 7.9-10.2-.2-.3-2 .8-3.8 2.3zM186 257.7c-1.4 1-3.1 1.8-3.8 1.8-1.4 0-4.9 4.5-9.6 12.1-2.5 4.1-5.6 16.2-5.6 22.1 0 4 1.8 8.9 2.9 7.7 1.7-2 7.1-16.5 7.1-19.3 0-4.2 2.6-9.7 6.9-14.4 2-2.3 4.5-5.3 5.4-6.7 3.3-4.8 1.4-6.6-3.3-3.3zM145.6 327.9c-2.2 2.4-3 7.9-1.7 11.1 1 2.5 1 2.5 1 .2.1-3.8 2-6.2 6.2-7.9 5-2 4.9-4.4-.2-4.9-2.6-.2-4.2.3-5.3 1.5zM370.6 344.6c-.4 1.5-2.7 6.2-5.2 10.4-2.4 4.2-4.4 8-4.4 8.4 0 .5-.9 2.1-2.1 3.7-1.1 1.6-1.7 2.9-1.3 2.9.4 0-.1.9-1 1.9-1.3 1.5-1.6 2.8-1.1 5.1.7 3 .7 3.1 2.6 1.4 2-1.8 2-1.7 1 .9-.8 2.2-.8 2.7.4 2.7 1.1 0 .8.9-1 3.6-1.4 2-2.5 4-2.5 4.5 0 1.5 2.2 2.1 3.3.9.9-1 .9-1.1 0-.6-.9.5-1.1.2-.7-.8.3-.9 1-1.3 1.5-1 .5.3.6-.2.3-1-.3-.9-.2-1.6.4-1.6.8 0 1.7-1.7 2.7-5.6.2-.6 1.5-3 3-5.3 2.6-3.9 2.7-4.2 1.1-5.9-2.1-2.4-2.1-2.2 1.9-14.3 1.9-5.7 3.5-11 3.5-11.7 0-2.3-1.8-1.2-2.4 1.4zM317.4 418.3c-4.3 4.9-9.3 14.3-11.9 22.7-2.9 9.2-4.5 12.2-6.5 12.7-2.4.6-2.5 1.6-.5 3.3 1.1.9 2.5 1 4.8.4 3.1-.9 3.2-1.2 5.3-10.9 2.2-9.8 5.2-17.3 10.8-26.8 1.6-2.6 2.6-5 2.3-5.3-.2-.3-2.2 1.5-4.3 3.9zM311.8 451.7c-1.7.4-2.6 3.3-1.2 3.3 1.9 0 8.4-2.4 8.4-3.2 0-.8-4.2-.9-7.2-.1z"/></svg>