<svg xmlns="http://www.w3.org/2000/svg" viewBox="0 0 356.98 82.02"><defs><style>.a{fill:#07393C;}</style></defs><title>Salmon_Logo_BLK_pos</title><path class="a" d="M324.39,62.73a30.66,30.66,0,0,0-32.54-7,9.87,9.87,0,0,1,8.12,9.7,10.07,10.07,0,0,1-.49,3.07,16.19,16.19,0,1,1-8.57,4.73c.1-.1.19-.21.29-.32l.31-.28a7.22,7.22,0,0,0,1.78-4,.68.68,0,0,0,0-.14,2.42,2.42,0,0,0,0-.38c0-.11,0-.21,0-.32s0-.18,0-.28a7.18,7.18,0,0,0-2.11-4.85,7.25,7.25,0,0,0-9.44-.69c-.26.24-.52.48-.77.73s-.5.52-.74.79a30.66,30.66,0,1,0,44.12-.79Z" transform="translate(-33.6 -33.06)"/><path class="a" d="M136.87,113.66v-6.38c-4.06,4.51-9.67,7.47-17.8,7.47-11.1,0-20.23-6.37-20.23-18v-.22c0-12.86,9.79-18.8,23.75-18.8A41.78,41.78,0,0,1,137,80.13v-1c0-6.93-4.28-10.77-12.64-10.77a43.46,43.46,0,0,0-16.26,3.18L103.9,58.8a52.07,52.07,0,0,1,22.86-4.72C145,54.08,153,63.53,153,79.47v34.19Zm.33-23.75a25.84,25.84,0,0,0-10.66-2.2c-7.14,0-11.54,2.86-11.54,8.14v.22c0,4.51,3.74,7.15,9.12,7.15,7.81,0,13.08-4.29,13.08-10.34Z" transform="translate(-33.6 -33.06)"/><path class="a" d="M157.6,113.66V33.41h16.71v80.25Z" transform="translate(-33.6 -33.06)"/><path class="a" d="M252.09,113.66V80.79c0-7.91-3.52-12-9.79-12s-10.11,4.07-10.11,12v32.87H215.48V80.79c0-7.91-3.51-12-9.78-12s-10.11,4.07-10.11,12v32.87H178.88V54.74h16.71v8.35c3.85-4.94,8.9-9.45,17.37-9.45,7.69,0,13.51,3.41,16.59,9.34,5.17-6,11.32-9.34,19.35-9.34,12.42,0,19.89,7.47,19.89,21.65v38.37Z" transform="translate(-33.6 -33.06)"/><path class="a" d="M373.87,113.66V80.79c0-7.91-3.73-12-10.11-12s-10.44,4.07-10.44,12v32.87H336.61V54.74h16.71v8.35c3.84-4.94,8.79-9.45,17.25-9.45,12.65,0,20,8.35,20,21.87v38.15Z" transform="translate(-33.6 -33.06)"/><path class="a" d="M67.14,114.75A50.56,50.56,0,0,1,33.6,102.21l10-12c8,6.55,15.58,9.6,23.83,9.6,7.41,0,11.82-2.92,11.82-7.82v-.23c0-4.91-3.5-7.15-16.31-10.44-14.9-3.8-26.3-8-26.3-24.17v-.23c0-14,11.4-23.83,27.71-23.83A45.93,45.93,0,0,1,93.72,43l-8.83,12.8C77.29,50.58,70.51,48,64.17,48s-10.56,2.85-10.56,7.25v.23c0,5.52,3.72,7.26,17.46,10.78C92,71.74,96.22,79.71,96.22,90v.24C96.22,105.36,85.08,114.75,67.14,114.75Z" transform="translate(-33.6 -33.06)"/></svg>